<?xml version="1.0" encoding="utf-8"?>
<!-- Generator: Adobe Illustrator 16.0.0, SVG Export Plug-In . SVG Version: 6.00 Build 0)  -->
<!DOCTYPE svg PUBLIC "-//W3C//DTD SVG 1.1//EN" "http://www.w3.org/Graphics/SVG/1.1/DTD/svg11.dtd">
<svg version="1.1" id="Layer_1" xmlns="http://www.w3.org/2000/svg" xmlns:xlink="http://www.w3.org/1999/xlink" x="0px" y="0px"
	 width="841.89px" height="174.667px" viewBox="0 0 841.89 174.667" enable-background="new 0 0 841.89 174.667"
	 xml:space="preserve">
<path fill="#04F18C" d="M141.04,159.26H30.973c-10.918,0-19.77-8.853-19.77-19.771V29.422c0-10.918,8.852-19.77,19.77-19.77H141.04
	c10.919,0,19.771,8.852,19.771,19.77V139.49C160.811,150.408,151.959,159.26,141.04,159.26z"/>
<path d="M134.931,83.101c0,0-5.998-12.488-23.497-13.31H96.563h-27.03c0,0-2.282-0.129-3.04-0.206
	c-0.813-0.081-3.243-0.423-3.243-0.423l-0.003,0.003c-7.445-1.737-14.316-6.499-14.315-16.484
	c0.001-17.664,21.645-16.528,21.645-16.528l0.766,0l23.328-0.021c0,0,1.043-0.978,1.062-4.168c0.021-3.758-3.225-7.105-7.112-7.81
	s-5.586-0.539-5.586-0.539s-1.356-3.696-5.625-3.692c-3.604,0.004-5.265,1.905-6.083,3.703c0,0-23.362-0.354-35.456,14.187
	c-7.106,8.544-9.053,18.711-5.998,29.495c3.243,11.445,13.668,22.118,27.969,25.528l-0.002,1.763l-0.017,14.446l-0.037,32.428
	l12.784,0.015l0.035-30.766l4.681,0.005l-0.035,30.766l12.784,0.016l0.034-30.767l4.682,0.006l-0.035,30.765l12.784,0.016
	l0.035-30.767l4.659,0.006l-0.035,30.767l12.784,0.014l0.043-38.686l14.1,38.702l0.054-47.589
	C137.139,93.972,137.54,89.203,134.931,83.101z M77.332,22.788c1.881-0.002,3.409,1.515,3.411,3.388
	c0.002,1.873-1.521,3.392-3.402,3.394s-3.409-1.515-3.412-3.388S75.45,22.79,77.332,22.788z"/>
<path fill="#FFFFFF" d="M387.271,95.922V82.371h-14.044v-17.16l-29.389,30.711h14.044v19.743c0,16.429,9.134,27.319,26.083,27.319
	v-15.133c-7.582,0-10.738-4.499-10.738-12.784V95.922H387.271z"/>
<path fill="#FFFFFF" d="M466.893,141.544l0.001-33.437c0-16.429,9.133-27.319,26.083-27.319v15.133
	c-7.582,0-10.738,4.498-10.738,12.784v32.839H466.893z"/>
<path fill="#04F18C" d="M740.679,143.791l0.001-33.438c0-16.428,9.134-27.319,26.082-27.319v15.134
	c-7.581,0-10.736,4.498-10.736,12.783v32.84H740.679z"/>
<path fill="#FFFFFF" d="M456.057,111.885V61.778h-15.345v24.8c-3.98-3.582-11.698-5.79-17.448-5.79
	c-17.174,0-29.403,13.923-29.403,31.098c0,17.176,13.923,31.099,31.098,31.099C442.134,142.985,456.057,129.062,456.057,111.885
	L456.057,111.885z M424.959,128.272c-8.7,0-15.753-7.336-15.753-16.386c0-9.049,7.053-16.385,15.753-16.385
	s15.753,7.336,15.753,16.385C440.712,120.936,433.659,128.272,424.959,128.272z"/>
<path fill="#FFFFFF" d="M504.517,141.544h15.346V83.091h-15.346V141.544z M512.189,76.831c5.056,0,9.153-4.098,9.153-9.153
	s-4.098-9.153-9.153-9.153c-5.055,0-9.152,4.098-9.152,9.153S507.135,76.831,512.189,76.831z"/>
<path fill="#FFFFFF" d="M572.813,141.544h15.345v-33.283c0-15.173-12.3-27.473-27.474-27.473h0.001
	c-15.173,0-27.474,12.3-27.474,27.473v33.283h15.346v-33.283c0-6.697,5.429-12.127,12.128-12.127h-0.001
	c6.698,0,12.128,5.43,12.128,12.127L572.813,141.544z"/>
<path fill="#04F18C" d="M793.649,84.617h-15.346V117.9c0.001,15.173,12.3,27.474,27.474,27.474l0,0
	c15.173,0,27.473-12.301,27.473-27.474V84.617h-15.346V117.9c0,6.698-5.43,12.128-12.127,12.128l0,0
	c-6.698,0-12.128-5.43-12.128-12.128V84.617z"/>
<path fill="#FFFFFF" d="M638.021,111.958c8.354-5.561,11.727-15.45,11.727-29.587h-15.345c0,10.836-2.282,19.088-11.582,19.747
	h-5.91V61.821h-15.347v79.724h15.347v-25.961h6.188l14.073,25.961h17.486L638.021,111.958z"/>
<path fill="#FFFFFF" d="M705.758,124.546c0.001-0.031,0.002-0.061,0.002-0.092h-0.002c0-14.191-13.48-17.323-20.819-19.067
	c-7.655-1.82-8.659-4.948-8.659-7.139c0-2.577,2.528-5.025,6.804-5.025c7.126,0,7.937,6.389,7.937,6.389h14.254
	c-1.601-12.624-12.012-18.823-22.74-18.823c-9.99,0-21.406,5.633-21.406,17.743c0,9.258,6.435,14.757,13.711,17.137
	c6.975,2.28,15.651,2.206,15.651,8.825c0,3.626-2.405,5.766-6.681,5.766c-7.126,0-7.94-6.933-7.94-6.933h-14.254
	c1.601,13.181,12.012,19.653,22.739,19.653c9.942,0,21.294-5.825,21.404-18.344h0.002
	C705.76,124.606,705.759,124.577,705.758,124.546z"/>
<circle fill="#04F18C" cx="722.209" cy="136.868" r="9.154"/>
<path fill="#FFFFFF" d="M308.474,80.796c-17.447,0-31.591,13.892-31.591,31.029c0,17.136,14.144,31.028,31.591,31.028
	c13.696,0,22.89-5.731,28.417-12.85L327,121.417c-4.628,5.036-10.527,8.044-18.273,8.044c-8.38,0-14.453-6.187-16.387-12.387h47.262
	c0.241-0.891,0.462-3.64,0.462-5.249C340.064,94.688,325.921,80.796,308.474,80.796z M292.823,105.091
	c2.517-7.228,8.959-11.168,15.648-11.168c8.186,0,14.372,5.817,15.769,11.168H292.823z"/>
<path fill="#FFFFFF" d="M268.75,98.591h-43.124v13.596h25.935c-4.062,9.964-12.846,15.984-23.239,15.974
	c-7.06,0-13.642-2.761-18.535-7.771c-4.868-4.984-7.548-11.649-7.548-18.769c0-7.13,2.681-13.823,7.549-18.847
	c4.902-5.059,11.484-7.845,18.535-7.845c9.171,0,17.149,4.625,21.924,12.695h16.369c-5.589-16.063-20.366-27.358-38.293-27.358
	c-22.84,0-41.354,18.516-41.354,41.355c0,22.838,18.515,41.354,41.354,41.354c22.839,0,40.49-18.517,40.49-41.354
	C268.812,100.217,268.75,98.591,268.75,98.591z"/>
<g>
	<path fill="#FFFFFF" stroke="#FFFFFF" stroke-miterlimit="10" d="M191.359,33.204c0-3.361,0.999-5.85,2.999-7.468
		c1.67-1.344,3.706-2.017,6.108-2.017c2.669,0,4.852,0.818,6.546,2.452c1.694,1.635,2.542,3.894,2.542,6.776
		c0,2.336-0.375,4.173-1.125,5.512c-0.75,1.339-1.841,2.378-3.273,3.119c-1.433,0.74-2.996,1.111-4.69,1.111
		c-2.719,0-4.916-0.814-6.592-2.444C192.197,38.616,191.359,36.269,191.359,33.204z M194.742,33.204
		c0,2.324,0.542,4.065,1.627,5.221c1.085,1.156,2.45,1.734,4.096,1.734c1.633,0,2.993-0.581,4.078-1.743s1.627-2.934,1.627-5.315
		c0-2.244-0.546-3.945-1.637-5.101s-2.447-1.735-4.068-1.735c-1.646,0-3.011,0.576-4.096,1.726
		C195.284,29.143,194.742,30.88,194.742,33.204z"/>
	<path fill="#FFFFFF" stroke="#FFFFFF" stroke-miterlimit="10" d="M214.809,42.279V24.129h2.962v2.581
		c1.426-1.994,3.486-2.991,6.181-2.991c1.17,0,2.246,0.196,3.228,0.59c0.981,0.393,1.716,0.909,2.203,1.546
		c0.488,0.638,0.829,1.396,1.024,2.273c0.122,0.57,0.183,1.567,0.183,2.991v11.16h-3.292v-11.04c0-1.253-0.128-2.19-0.384-2.812
		c-0.256-0.621-0.71-1.116-1.362-1.486c-0.652-0.37-1.417-0.556-2.295-0.556c-1.402,0-2.612,0.416-3.63,1.248
		c-1.018,0.832-1.527,2.41-1.527,4.734v9.912H214.809z"/>
	<path fill="#FFFFFF" stroke="#FFFFFF" stroke-miterlimit="10" d="M236.796,42.279V17.225h3.292v25.054H236.796z"/>
	<path fill="#FFFFFF" stroke="#FFFFFF" stroke-miterlimit="10" d="M246.354,20.763v-3.538h3.292v3.538H246.354z M246.354,42.279
		V24.129h3.292v18.149H246.354z"/>
	<path fill="#FFFFFF" stroke="#FFFFFF" stroke-miterlimit="10" d="M255.873,42.279V24.129h2.962v2.581
		c1.426-1.994,3.486-2.991,6.181-2.991c1.17,0,2.246,0.196,3.228,0.59c0.981,0.393,1.716,0.909,2.203,1.546
		c0.488,0.638,0.829,1.396,1.024,2.273c0.122,0.57,0.183,1.567,0.183,2.991v11.16h-3.292v-11.04c0-1.253-0.128-2.19-0.384-2.812
		c-0.256-0.621-0.71-1.116-1.362-1.486c-0.652-0.37-1.417-0.556-2.295-0.556c-1.402,0-2.612,0.416-3.63,1.248
		c-1.018,0.832-1.527,2.41-1.527,4.734v9.912H255.873z"/>
	<path fill="#FFFFFF" stroke="#FFFFFF" stroke-miterlimit="10" d="M291.275,36.434l3.401,0.393c-0.537,1.857-1.53,3.298-2.981,4.324
		s-3.304,1.538-5.559,1.538c-2.84,0-5.092-0.817-6.756-2.452s-2.496-3.928-2.496-6.879c0-3.053,0.841-5.423,2.523-7.109
		c1.682-1.686,3.864-2.529,6.546-2.529c2.597,0,4.718,0.826,6.364,2.478c1.646,1.652,2.468,3.977,2.468,6.973
		c0,0.183-0.006,0.456-0.018,0.82h-14.483c0.122,1.994,0.726,3.521,1.811,4.58s2.438,1.589,4.06,1.589
		c1.207,0,2.237-0.296,3.09-0.889C290.099,38.679,290.775,37.733,291.275,36.434z M280.468,31.461h10.844
		c-0.146-1.526-0.561-2.671-1.244-3.435c-1.048-1.185-2.408-1.777-4.078-1.777c-1.512,0-2.783,0.473-3.813,1.418
		C281.147,28.613,280.578,29.877,280.468,31.461z"/>
	<path fill="#FFFFFF" stroke="#FFFFFF" stroke-miterlimit="10" d="M312.809,49.234V24.129h2.999v2.358
		c0.707-0.923,1.505-1.615,2.396-2.076c0.89-0.462,1.968-0.692,3.236-0.692c1.658,0,3.121,0.399,4.389,1.196
		c1.268,0.798,2.225,1.923,2.871,3.375c0.646,1.453,0.969,3.045,0.969,4.777c0,1.857-0.357,3.529-1.07,5.016
		c-0.713,1.486-1.75,2.626-3.109,3.418c-1.359,0.792-2.789,1.188-4.288,1.188c-1.097,0-2.082-0.217-2.953-0.649
		s-1.588-0.979-2.148-1.641v8.835H312.809z M315.79,33.307c0,2.336,0.506,4.062,1.518,5.178c1.012,1.117,2.237,1.675,3.676,1.675
		c1.463,0,2.715-0.578,3.758-1.734s1.563-2.948,1.563-5.375c0-2.313-0.509-4.044-1.527-5.195c-1.018-1.15-2.234-1.726-3.648-1.726
		c-1.402,0-2.643,0.613-3.722,1.837C316.329,29.191,315.79,30.971,315.79,33.307z"/>
	<path fill="#FFFFFF" stroke="#FFFFFF" stroke-miterlimit="10" d="M334.923,42.279V17.225h3.292v25.054H334.923z"/>
	<path fill="#FFFFFF" stroke="#FFFFFF" stroke-miterlimit="10" d="M357.21,40.04c-1.219,0.969-2.393,1.652-3.521,2.051
		c-1.127,0.398-2.337,0.598-3.629,0.598c-2.134,0-3.773-0.487-4.919-1.461c-1.146-0.975-1.719-2.219-1.719-3.734
		c0-0.889,0.216-1.7,0.649-2.436c0.433-0.734,1-1.324,1.701-1.769c0.701-0.444,1.49-0.78,2.368-1.008
		c0.646-0.159,1.622-0.313,2.926-0.461c2.658-0.296,4.614-0.649,5.87-1.06c0.012-0.421,0.018-0.689,0.018-0.803
		c0-1.253-0.311-2.136-0.933-2.649c-0.841-0.695-2.091-1.042-3.749-1.042c-1.548,0-2.691,0.254-3.429,0.76
		c-0.738,0.507-1.283,1.405-1.637,2.692l-3.218-0.41c0.292-1.287,0.774-2.327,1.445-3.119c0.67-0.792,1.639-1.401,2.907-1.829
		c1.268-0.427,2.737-0.641,4.407-0.641c1.658,0,3.005,0.183,4.041,0.547c1.036,0.365,1.798,0.823,2.286,1.376
		c0.488,0.553,0.829,1.25,1.024,2.093c0.109,0.524,0.165,1.47,0.165,2.837v4.102c0,2.86,0.07,4.668,0.21,5.426
		s0.417,1.484,0.832,2.179h-3.438C357.527,41.641,357.307,40.895,357.21,40.04z M356.936,33.17
		c-1.195,0.456-2.987,0.843-5.376,1.162c-1.354,0.183-2.311,0.388-2.871,0.615c-0.561,0.228-0.994,0.562-1.298,1
		c-0.305,0.439-0.457,0.926-0.457,1.461c0,0.82,0.332,1.504,0.997,2.051c0.664,0.547,1.636,0.82,2.917,0.82
		c1.268,0,2.396-0.259,3.383-0.778c0.988-0.518,1.713-1.227,2.176-2.127c0.354-0.695,0.53-1.72,0.53-3.076V33.17z"/>
	<path fill="#FFFFFF" stroke="#FFFFFF" stroke-miterlimit="10" d="M373.563,39.527l0.475,2.717
		c-0.926,0.182-1.755,0.273-2.487,0.273c-1.195,0-2.121-0.177-2.779-0.53s-1.122-0.817-1.39-1.393
		c-0.269-0.575-0.402-1.786-0.402-3.631V26.522h-2.414v-2.393h2.414v-4.495l3.273-1.846v6.34h3.31v2.393h-3.31v10.613
		c0,0.877,0.058,1.441,0.174,1.692c0.116,0.251,0.305,0.45,0.567,0.598c0.262,0.148,0.637,0.222,1.125,0.222
		C372.484,39.647,372.966,39.607,373.563,39.527z"/>
	<path fill="#FFFFFF" stroke="#FFFFFF" stroke-miterlimit="10" d="M379.871,42.279V26.522h-2.907v-2.393h2.907v-1.931
		c0-1.219,0.116-2.125,0.348-2.717c0.317-0.797,0.875-1.444,1.673-1.939c0.798-0.496,1.917-0.744,3.355-0.744
		c0.926,0,1.951,0.103,3.072,0.308l-0.494,2.683c-0.683-0.114-1.329-0.171-1.938-0.171c-1,0-1.707,0.2-2.121,0.598
		c-0.415,0.399-0.622,1.145-0.622,2.239v1.675h3.785v2.393h-3.785v15.757H379.871z"/>
	<path fill="#FFFFFF" stroke="#FFFFFF" stroke-miterlimit="10" d="M389.497,33.204c0-3.361,0.999-5.85,2.999-7.468
		c1.67-1.344,3.706-2.017,6.108-2.017c2.669,0,4.852,0.818,6.546,2.452c1.694,1.635,2.542,3.894,2.542,6.776
		c0,2.336-0.375,4.173-1.125,5.512c-0.75,1.339-1.841,2.378-3.273,3.119c-1.433,0.74-2.996,1.111-4.69,1.111
		c-2.719,0-4.916-0.814-6.592-2.444C390.334,38.616,389.497,36.269,389.497,33.204z M392.879,33.204
		c0,2.324,0.542,4.065,1.627,5.221c1.085,1.156,2.45,1.734,4.096,1.734c1.633,0,2.993-0.581,4.078-1.743s1.627-2.934,1.627-5.315
		c0-2.244-0.546-3.945-1.637-5.101s-2.447-1.735-4.068-1.735c-1.646,0-3.011,0.576-4.096,1.726
		C393.421,29.143,392.879,30.88,392.879,33.204z"/>
	<path fill="#FFFFFF" stroke="#FFFFFF" stroke-miterlimit="10" d="M412.928,42.279V24.129h2.962v2.751
		c0.755-1.287,1.454-2.136,2.094-2.546s1.344-0.615,2.112-0.615c1.109,0,2.237,0.331,3.383,0.991l-1.134,2.854
		c-0.805-0.444-1.609-0.667-2.414-0.667c-0.719,0-1.365,0.203-1.938,0.606c-0.573,0.405-0.981,0.966-1.225,1.684
		c-0.366,1.094-0.548,2.29-0.548,3.589v9.502H412.928z"/>
	<path fill="#FFFFFF" stroke="#FFFFFF" stroke-miterlimit="10" d="M427.305,42.279V24.129h2.944v2.546
		c0.609-0.889,1.42-1.604,2.432-2.145c1.012-0.541,2.164-0.812,3.456-0.812c1.438,0,2.618,0.279,3.538,0.837
		c0.921,0.559,1.569,1.339,1.948,2.341c1.535-2.119,3.535-3.179,5.997-3.179c1.927,0,3.407,0.499,4.444,1.495
		c1.035,0.998,1.554,2.533,1.554,4.606v12.458h-3.273V30.846c0-1.23-0.106-2.116-0.319-2.658c-0.214-0.541-0.601-0.977-1.161-1.307
		c-0.562-0.33-1.22-0.496-1.976-0.496c-1.365,0-2.499,0.425-3.4,1.273c-0.902,0.849-1.354,2.208-1.354,4.076v10.544h-3.292V30.487
		c0-1.367-0.268-2.393-0.805-3.076c-0.536-0.684-1.414-1.025-2.633-1.025c-0.927,0-1.783,0.228-2.569,0.684
		c-0.786,0.456-1.356,1.123-1.71,2c-0.354,0.877-0.53,2.142-0.53,3.794v9.417H427.305z"/>
</g>
</svg>
