<?xml version="1.0" encoding="utf-8"?>
<!-- Generator: Adobe Illustrator 21.0.0, SVG Export Plug-In . SVG Version: 6.00 Build 0)  -->
<svg version="1.1" id="Layer_1" xmlns="http://www.w3.org/2000/svg" xmlns:xlink="http://www.w3.org/1999/xlink" x="0px" y="0px"
	 viewBox="0 0 658.5 97.4" style="enable-background:new 0 0 658.5 97.4;" xml:space="preserve">
<style type="text/css">
	.st0{fill:#010101;}
	.st1{fill:#04F18C;}
</style>
<g>
	<path class="st0" d="M206.3,47.4V33.8h-14V16.7l-29.3,30.7h14v19.7c0,16.4,9.1,27.3,26,27.3V79.2c-7.6,0-10.7-4.5-10.7-12.8V47.4
		H206.3z"/>
	<path class="st0" d="M285.8,92.9V59.5c0-16.4,9.1-27.3,26-27.3v15.1c-7.6,0-10.7,4.5-10.7,12.8v32.8H285.8z"/>
	<path class="st1" d="M559.2,95.2l0-33.4c0-16.4,9.1-27.3,26-27.3v15.1c-7.6,0-10.7,4.5-10.7,12.8v32.8H559.2z"/>
	<path class="st0" d="M275,63.3v-50h-15.3V38c-4-3.6-11.7-5.8-17.4-5.8c-17.2,0-29.4,13.9-29.4,31.1c0,17.1,13.9,31.1,31.1,31.1
		C261.1,94.4,275,80.5,275,63.3C275,63.3,275,63.3,275,63.3z M243.9,79.7c-8.7,0-15.7-7.3-15.7-16.4c0-9,7-16.4,15.7-16.4
		s15.7,7.3,15.7,16.4C259.7,72.3,252.6,79.7,243.9,79.7z"/>
	<path class="st0" d="M323.4,92.9h15.3V34.5h-15.3V92.9z M331,28.3c5,0,9.1-4.1,9.1-9.1S336.1,10,331,10s-9.1,4.1-9.1,9.1
		S326,28.3,331,28.3z"/>
	<path class="st0" d="M391.6,92.9h15.3V59.7c0-15.2-12.3-27.4-27.4-27.4l0,0c-15.2,0-27.4,12.3-27.4,27.4v33.2h15.3V59.7
		c0-6.7,5.4-12.1,12.1-12.1l0,0c6.7,0,12.1,5.4,12.1,12.1L391.6,92.9z"/>
	<path class="st1" d="M612.1,36.1h-15.3v33.2c0,15.2,12.3,27.4,27.4,27.4l0,0c15.2,0,27.4-12.3,27.4-27.4V36.1h-15.3v33.2
		c0,6.7-5.4,12.1-12.1,12.1l0,0c-6.7,0-12.1-5.4-12.1-12.1L612.1,36.1L612.1,36.1z"/>
	<path class="st0" d="M456.7,63.4c8.3-5.6,11.7-15.4,11.7-29.5h-15.3c0,10.8-2.3,19.1-11.6,19.7h-5.9V13.3h-15.3v79.6h15.3V67h6.2
		l14.1,25.9h17.5L456.7,63.4z"/>
	<path class="st0" d="M524.3,75.9C524.3,75.9,524.3,75.9,524.3,75.9L524.3,75.9c0-14.3-13.5-17.4-20.8-19.1
		c-7.6-1.8-8.6-4.9-8.6-7.1c0-2.6,2.5-5,6.8-5c7.1,0,7.9,6.4,7.9,6.4h14.2c-1.6-12.6-12-18.8-22.7-18.8c-10,0-21.4,5.6-21.4,17.7
		c0,9.2,6.4,14.7,13.7,17.1c7,2.3,15.6,2.2,15.6,8.8c0,3.6-2.4,5.8-6.7,5.8c-7.1,0-7.9-6.9-7.9-6.9h-14.2
		c1.6,13.2,12,19.6,22.7,19.6C512.9,94.4,524.2,88.5,524.3,75.9L524.3,75.9C524.3,76,524.3,76,524.3,75.9z"/>
	<circle class="st1" cx="540.8" cy="88.3" r="9.1"/>
	<path class="st0" d="M127.6,32.3c-17.4,0-31.5,13.9-31.5,31s14.1,31,31.5,31c13.7,0,22.9-5.7,28.4-12.8l-9.9-8.6
		c-4.6,5-10.5,8-18.2,8c-8.4,0-14.4-6.2-16.4-12.4h47.2c0.2-0.9,0.5-3.6,0.5-5.2C159.1,46.1,145,32.3,127.6,32.3z M112,56.5
		c2.5-7.2,8.9-11.2,15.6-11.2c8.2,0,14.4,5.8,15.7,11.2H112z"/>
	<path class="st0" d="M87.9,50H44.9v13.6h25.9c-4.1,10-12.8,16-23.2,15.9c-7,0-13.6-2.8-18.5-7.8c-4.9-5-7.5-11.6-7.5-18.7
		c0-7.1,2.7-13.8,7.5-18.8c4.9-5.1,11.5-7.8,18.5-7.8c9.2,0,17.1,4.6,21.9,12.7h16.3c-5.6-16-20.3-27.3-38.2-27.3
		c-22.8,0-41.3,18.5-41.3,41.3c0,22.8,18.5,41.3,41.3,41.3C70.4,94.3,88,75.9,88,53.1C88,51.7,87.9,50,87.9,50z"/>
</g>
</svg>
