<svg width="42" height="42" viewBox="0 0 42 42" fill="none" xmlns="http://www.w3.org/2000/svg">
<circle cx="21" cy="21" r="21" fill="#04F18C"/>
<path d="M13.4756 26H11.5V18.3848L9.1416 19.1162V17.5098L13.2637 16.0332H13.4756V26Z" fill="white"/>
<path d="M23.2031 18.6924C23.2031 19.1755 23.0824 19.6038 22.8408 19.9775C22.5993 20.3512 22.2666 20.6497 21.8428 20.873C22.3258 21.1055 22.7087 21.4268 22.9912 21.8369C23.2738 22.2425 23.415 22.721 23.415 23.2725C23.415 24.1566 23.1143 24.8561 22.5127 25.3711C21.9111 25.8815 21.0931 26.1367 20.0586 26.1367C19.0241 26.1367 18.2038 25.8792 17.5977 25.3643C16.9915 24.8493 16.6885 24.152 16.6885 23.2725C16.6885 22.721 16.8298 22.2402 17.1123 21.8301C17.3949 21.4199 17.7754 21.1009 18.2539 20.873C17.8301 20.6497 17.4974 20.3512 17.2559 19.9775C17.0189 19.6038 16.9004 19.1755 16.9004 18.6924C16.9004 17.8447 17.1829 17.1702 17.748 16.6689C18.3132 16.1631 19.0811 15.9102 20.0518 15.9102C21.0179 15.9102 21.7835 16.1608 22.3486 16.6621C22.9183 17.1589 23.2031 17.8356 23.2031 18.6924ZM21.4326 23.1289C21.4326 22.696 21.3073 22.3496 21.0566 22.0898C20.806 21.8301 20.4688 21.7002 20.0449 21.7002C19.6257 21.7002 19.2907 21.8301 19.04 22.0898C18.7894 22.3451 18.6641 22.6914 18.6641 23.1289C18.6641 23.5527 18.7871 23.8945 19.0332 24.1543C19.2793 24.4141 19.6211 24.5439 20.0586 24.5439C20.487 24.5439 20.8219 24.4186 21.0635 24.168C21.3096 23.9173 21.4326 23.571 21.4326 23.1289ZM21.2275 18.7881C21.2275 18.4007 21.125 18.0908 20.9199 17.8584C20.7148 17.6214 20.4255 17.5029 20.0518 17.5029C19.6826 17.5029 19.3955 17.6169 19.1904 17.8447C18.9854 18.0726 18.8828 18.387 18.8828 18.7881C18.8828 19.1846 18.9854 19.5036 19.1904 19.7451C19.3955 19.9867 19.6849 20.1074 20.0586 20.1074C20.4323 20.1074 20.7194 19.9867 20.9199 19.7451C21.125 19.5036 21.2275 19.1846 21.2275 18.7881Z" fill="white"/>
<path d="M28.8223 20.4287H31.29V22.2129H28.8223V25.002H26.9424V22.2129H24.4678V20.4287H26.9424V17.7559H28.8223V20.4287Z" fill="white"/>
</svg>
