<svg width="44" height="44" viewBox="0 0 44 44" fill="none" xmlns="http://www.w3.org/2000/svg">
<circle cx="22" cy="22" r="21.5" stroke="#04F18C"/>
<path d="M11.499 27H4.67676V25.6465L7.89648 22.2148C8.33854 21.7318 8.66439 21.3102 8.87402 20.9502C9.08822 20.5902 9.19531 20.2484 9.19531 19.9248C9.19531 19.4827 9.08366 19.1364 8.86035 18.8857C8.63704 18.6305 8.31803 18.5029 7.90332 18.5029C7.45671 18.5029 7.10352 18.6579 6.84375 18.9678C6.58854 19.2731 6.46094 19.6764 6.46094 20.1777H4.47852C4.47852 19.5716 4.62207 19.0179 4.90918 18.5166C5.20085 18.0153 5.611 17.6234 6.13965 17.3408C6.66829 17.0537 7.26758 16.9102 7.9375 16.9102C8.96289 16.9102 9.75814 17.1562 10.3232 17.6484C10.8929 18.1406 11.1777 18.8356 11.1777 19.7334C11.1777 20.2256 11.0501 20.7269 10.7949 21.2373C10.5397 21.7477 10.1022 22.3424 9.48242 23.0215L7.21973 25.4072H11.499V27Z" fill="#04F18C"/>
<path d="M14.7256 21.1484H15.7783C16.2796 21.1484 16.651 21.0231 16.8926 20.7725C17.1341 20.5218 17.2549 20.1891 17.2549 19.7744C17.2549 19.3734 17.1341 19.0612 16.8926 18.8379C16.6556 18.6146 16.3275 18.5029 15.9082 18.5029C15.5299 18.5029 15.2132 18.6077 14.958 18.8174C14.7028 19.0225 14.5752 19.2913 14.5752 19.624H12.5996C12.5996 19.1045 12.7386 18.6396 13.0166 18.2295C13.2992 17.8148 13.6911 17.4912 14.1924 17.2588C14.6982 17.0264 15.2542 16.9102 15.8604 16.9102C16.9131 16.9102 17.738 17.1631 18.335 17.6689C18.932 18.1702 19.2305 18.863 19.2305 19.7471C19.2305 20.2028 19.0915 20.6221 18.8135 21.0049C18.5355 21.3877 18.1709 21.6816 17.7197 21.8867C18.2803 22.0872 18.6973 22.388 18.9707 22.7891C19.2487 23.1901 19.3877 23.6641 19.3877 24.2109C19.3877 25.0951 19.0641 25.8037 18.417 26.3369C17.7744 26.8701 16.9222 27.1367 15.8604 27.1367C14.8669 27.1367 14.0534 26.8747 13.4199 26.3506C12.791 25.8265 12.4766 25.1338 12.4766 24.2725H14.4521C14.4521 24.6462 14.5911 24.9515 14.8691 25.1885C15.1517 25.4255 15.498 25.5439 15.9082 25.5439C16.3776 25.5439 16.7445 25.4209 17.0088 25.1748C17.2777 24.9242 17.4121 24.5938 17.4121 24.1836C17.4121 23.1901 16.8652 22.6934 15.7715 22.6934H14.7256V21.1484Z" fill="#04F18C"/>
<path d="M20.9326 26.0293C20.9326 25.7148 21.0374 25.4596 21.2471 25.2637C21.4613 25.0677 21.7279 24.9697 22.0469 24.9697C22.3704 24.9697 22.637 25.0677 22.8467 25.2637C23.0609 25.4596 23.168 25.7148 23.168 26.0293C23.168 26.3392 23.0632 26.5921 22.8535 26.7881C22.6439 26.9795 22.375 27.0752 22.0469 27.0752C21.7233 27.0752 21.4567 26.9795 21.2471 26.7881C21.0374 26.5921 20.9326 26.3392 20.9326 26.0293ZM20.9326 20.4307C20.9326 20.1162 21.0374 19.861 21.2471 19.665C21.4613 19.4691 21.7279 19.3711 22.0469 19.3711C22.3704 19.3711 22.637 19.4691 22.8467 19.665C23.0609 19.861 23.168 20.1162 23.168 20.4307C23.168 20.7406 23.0632 20.9935 22.8535 21.1895C22.6439 21.3809 22.375 21.4766 22.0469 21.4766C21.7233 21.4766 21.4567 21.3809 21.2471 21.1895C21.0374 20.9935 20.9326 20.7406 20.9326 20.4307Z" fill="#04F18C"/>
<path d="M31.4053 22.8848C31.4053 24.2611 31.1204 25.3138 30.5508 26.043C29.9811 26.7721 29.1471 27.1367 28.0488 27.1367C26.9642 27.1367 26.1348 26.779 25.5605 26.0635C24.9863 25.348 24.6924 24.3226 24.6787 22.9873V21.1553C24.6787 19.7653 24.9658 18.7103 25.54 17.9902C26.1188 17.2702 26.9505 16.9102 28.0352 16.9102C29.1198 16.9102 29.9492 17.2679 30.5234 17.9834C31.0977 18.6943 31.3916 19.7174 31.4053 21.0527V22.8848ZM29.4297 20.875C29.4297 20.0501 29.3158 19.4508 29.0879 19.0771C28.8646 18.6989 28.5137 18.5098 28.0352 18.5098C27.5703 18.5098 27.2262 18.6898 27.0029 19.0498C26.7842 19.4053 26.668 19.9635 26.6543 20.7246V23.1445C26.6543 23.9557 26.7637 24.5596 26.9824 24.9561C27.2057 25.348 27.5612 25.5439 28.0488 25.5439C28.5319 25.5439 28.8805 25.3548 29.0947 24.9766C29.3089 24.5983 29.4206 24.0195 29.4297 23.2402V20.875Z" fill="#04F18C"/>
<path d="M39.4443 22.8848C39.4443 24.2611 39.1595 25.3138 38.5898 26.043C38.0202 26.7721 37.1862 27.1367 36.0879 27.1367C35.0033 27.1367 34.1738 26.779 33.5996 26.0635C33.0254 25.348 32.7314 24.3226 32.7178 22.9873V21.1553C32.7178 19.7653 33.0049 18.7103 33.5791 17.9902C34.1579 17.2702 34.9896 16.9102 36.0742 16.9102C37.1589 16.9102 37.9883 17.2679 38.5625 17.9834C39.1367 18.6943 39.4307 19.7174 39.4443 21.0527V22.8848ZM37.4688 20.875C37.4688 20.0501 37.3548 19.4508 37.127 19.0771C36.9036 18.6989 36.5527 18.5098 36.0742 18.5098C35.6094 18.5098 35.2653 18.6898 35.042 19.0498C34.8232 19.4053 34.707 19.9635 34.6934 20.7246V23.1445C34.6934 23.9557 34.8027 24.5596 35.0215 24.9561C35.2448 25.348 35.6003 25.5439 36.0879 25.5439C36.571 25.5439 36.9196 25.3548 37.1338 24.9766C37.348 24.5983 37.4596 24.0195 37.4688 23.2402V20.875Z" fill="#04F18C"/>
</svg>
